<?xml version="1.0" encoding="utf-8"?>
<!-- Generator: Adobe Illustrator 19.2.1, SVG Export Plug-In . SVG Version: 6.00 Build 0)  -->
<svg version="1.1" xmlns="http://www.w3.org/2000/svg" xmlns:xlink="http://www.w3.org/1999/xlink" x="0px" y="0px"
	 viewBox="0 0 572.6 141.3" style="enable-background:new 0 0 572.6 141.3;" xml:space="preserve">
<style type="text/css">
	.st0{display:none;}
	.st1{display:inline;}
	.st2{fill:#99FFFF;}
	.st3{fill:url(#SVGID_1_);}
	.st4{fill:url(#SVGID_2_);}
	.st5{fill:url(#SVGID_3_);}
	.st6{fill:url(#SVGID_4_);}
	.st7{fill:#333333;}
	.st8{fill:url(#SVGID_5_);}
	.st9{fill:#FFFFFF;}
</style>
<g id="Layer_1" class="st0">
	
		<text transform="matrix(1 0 0 1 589.2429 59.3518)" class="st1" style="font-family:'SofiaPro-Bold'; font-size:72px; letter-spacing:-4;">Clubar</text>
	<g class="st1">
		<line class="st2" x1="400" y1="359.4" x2="575.7" y2="432.3"/>
		<g>
			<linearGradient id="SVGID_1_" gradientUnits="userSpaceOnUse" x1="397.1243" y1="368.0957" x2="578.6054" y2="423.58">
				<stop  offset="0" style="stop-color:#009E00"/>
				<stop  offset="1" style="stop-color:#FFFF96"/>
			</linearGradient>
			<path class="st3" d="M393.6,382.5c19.8,8.2,39.5,16.4,59.3,24.6c31.5,13.1,63.1,26.2,94.6,39.3c7.3,3,14.5,6,21.8,9.1
				c5.3,2.2,13.8,0.4,18.5-2.4c5-2.9,9.7-8.6,11-14.3c1.4-6.1,1.1-13-2.4-18.5c-3.6-5.6-8.2-8.5-14.3-11
				c-19.8-8.2-39.5-16.4-59.3-24.6c-31.5-13.1-63.1-26.2-94.6-39.3c-7.3-3-14.5-6-21.8-9.1c-5.3-2.2-13.8-0.4-18.5,2.4
				c-5,2.9-9.7,8.6-11,14.3c-1.4,6.1-1.1,13,2.4,18.5C382.9,377.1,387.5,380,393.6,382.5L393.6,382.5z"/>
		</g>
	</g>
	<g class="st1">
		<line class="st2" x1="215.6" y1="432.3" x2="400" y2="359.4"/>
		<g>
			<linearGradient id="SVGID_2_" gradientUnits="userSpaceOnUse" x1="232.4847" y1="372.8125" x2="383.1099" y2="418.8632">
				<stop  offset="0" style="stop-color:#009E00"/>
				<stop  offset="1" style="stop-color:#FFFF96"/>
			</linearGradient>
			<path class="st4" d="M222,455.5c20.7-8.2,41.4-16.4,62.1-24.6c33.2-13.1,66.3-26.3,99.5-39.4c7.6-3,15.2-6,22.8-9
				c6-2.4,11-5.2,14.3-11c3-5.1,4.3-12.7,2.4-18.5c-3.7-11.3-17-21.7-29.5-16.8c-20.7,8.2-41.4,16.4-62.1,24.6
				c-33.2,13.1-66.3,26.3-99.5,39.4c-7.6,3-15.2,6-22.8,9c-6,2.4-11,5.2-14.3,11c-3,5.1-4.3,12.7-2.4,18.5
				C196.1,450,209.5,460.4,222,455.5L222,455.5z"/>
		</g>
	</g>
	<g class="st1">
		<line class="st2" x1="575.7" y1="432.3" x2="400" y2="143.8"/>
		<g>
			<linearGradient id="SVGID_3_" gradientUnits="userSpaceOnUse" x1="365.9059" y1="250.781" x2="609.8238" y2="325.3542">
				<stop  offset="0" style="stop-color:#009E00"/>
				<stop  offset="1" style="stop-color:#FFFF96"/>
			</linearGradient>
			<path class="st5" d="M596.5,420.2c-19.8-32.5-39.6-65.1-59.5-97.6c-31.6-51.8-63.1-103.6-94.7-155.4
				c-7.2-11.8-14.4-23.6-21.6-35.4c-6.5-10.7-21.8-15.7-32.8-8.6c-10.8,6.9-15.6,21.4-8.6,32.8c19.8,32.5,39.6,65.1,59.5,97.6
				c31.6,51.8,63.1,103.6,94.7,155.4c7.2,11.8,14.4,23.6,21.6,35.4c6.5,10.7,21.8,15.7,32.8,8.6
				C598.6,446.1,603.4,431.7,596.5,420.2L596.5,420.2z"/>
		</g>
	</g>
	<g class="st1">
		<line class="st2" x1="215.6" y1="432.3" x2="400" y2="143.8"/>
		<g>
			<linearGradient id="SVGID_4_" gradientUnits="userSpaceOnUse" x1="261.9676" y1="274.056" x2="353.627" y2="302.0791">
				<stop  offset="0" style="stop-color:#009E00"/>
				<stop  offset="1" style="stop-color:#FFFF96"/>
			</linearGradient>
			<path class="st6" d="M236.3,444.4c6.1-9.6,12.3-19.2,18.4-28.8c14.6-22.9,29.3-45.8,43.9-68.7c17.8-27.8,35.6-55.7,53.4-83.5
				c15.3-24,30.6-47.9,45.9-71.9c7.5-11.7,15.4-23.2,22.5-35.2c0.1-0.2,0.2-0.3,0.3-0.5c6.8-10.6,2.5-26.9-8.6-32.8
				c-11.9-6.3-25.6-2.7-32.8,8.6c-6.1,9.6-12.3,19.2-18.4,28.8c-14.6,22.9-29.3,45.8-43.9,68.7c-17.8,27.8-35.6,55.7-53.4,83.5
				c-15.3,24-30.6,47.9-45.9,71.9c-7.5,11.7-15.4,23.2-22.5,35.2c-0.1,0.2-0.2,0.3-0.3,0.5c-6.8,10.6-2.5,26.9,8.6,32.8
				C215.4,459.3,229.1,455.7,236.3,444.4L236.3,444.4z"/>
		</g>
	</g>
</g>
<g id="Layer_3" class="st0">
</g>
<g id="Layer_2" class="st0">
</g>
<g id="Layer_4">
	<g>
		<path class="st7" d="M244.2,117.2c-9.3,14.1-25.4,23-44.1,23c-14.9,0-27.4-5.2-37.5-15.7c-10-10.5-15-23.1-15-38
			c0-15,5-27.7,15-38.2c10.2-10.5,22.6-15.7,37.5-15.7c18.2,0,34.4,8.7,43.6,22.2l-18.1,12.5c-6.2-9.1-14.7-13.7-25.5-13.7
			c-8.7,0-15.8,3.2-21.6,9.6c-5.8,6.2-8.7,14-8.7,23.3c0,9.1,2.9,16.9,8.7,23.3c5.8,6.2,12.9,9.4,21.6,9.4
			c10.8,0,20.2-5.8,26.1-14.4L244.2,117.2z"/>
		<path class="st7" d="M247,29h21v110h-21V29z"/>
		<path class="st7" d="M324,68h21v71h-21v-10.1c-4,6.8-11.5,11.2-18.6,11.2c-16.6,0-28.4-10.6-28.4-30.1V68h21v37.5
			c0,10.2,6.7,14.1,12.9,14.1c7.3,0,13.1-4.6,13.1-14.4V68z"/>
		<path class="st7" d="M375,139h-21V29h21v47.3c4-6.2,12-10.2,21.1-10.2c9.4,0,17.6,3.5,24.3,10.3c6.8,6.8,10.2,15.8,10.2,26.9
			c0,10.8-3.3,19.8-10.2,26.6c-6.7,6.8-15,10.2-24.4,10.2c-9.1,0-17.1-3.8-21.1-10.3V139z M392.4,120.1c9.1,0,16.4-6.8,16.4-17.2
			c0-9.9-7.3-16.9-16.4-16.9c-9.1,0-16.4,6.5-16.4,16.9C376,112.8,383.3,120.1,392.4,120.1z"/>
		<path class="st7" d="M489,139v-8.5c-2,3-5.3,5.3-9.5,7c-4.1,1.7-8,2.4-11.3,2.4c-9.6,0-18-3.3-25.3-10.2c-7.3-6.8-11-15.8-11-26.8
			s3.6-19.8,10.9-26.6s15.8-10.3,25.3-10.3c6.7,0,15.8,2.6,20.8,9.4V68h21v71H489z M488.8,103c0-10.2-8.1-16.9-17.2-16.9
			c-4.7,0-8.8,1.7-12.5,4.9c-3.5,3.2-5.3,7.1-5.3,12s1.8,9,5.3,12.2c3.6,3.2,7.8,4.7,12.5,4.7C480.7,119.9,488.8,113.2,488.8,103z"
			/>
		<path class="st7" d="M540,139h-21V68h21v16.8c4-12.3,12.2-18.7,20.3-18.7c4.7,0,8.8,0.9,12.3,2.6l-3.7,19c-2.9-1.4-6.7-2.1-11-2.1
			c-11.7,0-17.8,9.4-17.8,28.3V139z"/>
	</g>
	<linearGradient id="SVGID_5_" gradientUnits="userSpaceOnUse" x1="121.3526" y1="95.6549" x2="-8.3771" y2="51.736">
		<stop  offset="0" style="stop-color:#0B61FF"/>
		<stop  offset="0.5123" style="stop-color:#37C7C2"/>
		<stop  offset="1" style="stop-color:#91FF92"/>
	</linearGradient>
	<path class="st8" d="M122.6,25.2c7,0.7-82.4-26.7-90.9-24.4C13-4.1-4.1,13,0.9,31.7C5.8,63.5,13.4,94,25.2,122.6
		c5,18.7,28.4,25,42.1,11.3c25.1-19.1,47.2-41.3,66.5-66.5C147.6,53.7,141.3,30.3,122.6,25.2z M91.5,60.9l-15.3,3.4
		c-6,1.2-9.5,5-10.9,10.9l-3.6,15.5c-1.3,4.3-5,4.2-6.6,0.5L39.3,40.6c-0.5-2.8,1.3-4.5,3.9-3.9l48.8,17.6
		C95.6,55.9,95.4,59.9,91.5,60.9z"/>
	<path class="st9" d="M43,36.8c-2.6-0.7-4.4,1.1-3.9,3.9L55,91.2c1.5,3.7,5.3,3.9,6.6-0.5l3.6-15.5c1.4-5.9,4.9-9.7,10.9-10.9
		l15.3-3.4c3.9-1,4.1-5,0.5-6.6L43,36.8z"/>
</g>
</svg>
